<svg xmlns="http://www.w3.org/2000/svg" style="display: none;"><symbol id="menu" viewBox="0 0 512 512"><title>menu</title><g> <g> <path d="M467,61H165c-24.82,0-45,20.19-45,45c0,24.82,20.18,45,45,45h302c24.81,0,45-20.18,45-45C512,81.19,491.81,61,467,61z"/> </g> </g><g> <g> <path d="M467,211H165c-24.82,0-45,20.19-45,45c0,24.82,20.18,45,45,45h302c24.81,0,45-20.18,45-45C512,231.19,491.81,211,467,211z "/> </g> </g><g> <g> <path d="M467,361H165c-24.82,0-45,20.19-45,45c0,24.82,20.18,45,45,45h302c24.81,0,45-20.18,45-45C512,381.19,491.81,361,467,361z "/> </g> </g><g> <g> <path d="M45,61C20.18,61,0,81.19,0,106c0,24.82,20.18,45,45,45c24.81,0,45-20.18,45-45C90,81.19,69.81,61,45,61z"/> </g> </g><g> <g> <path d="M45,211c-24.82,0-45,20.19-45,45c0,24.82,20.18,45,45,45c24.81,0,45-20.18,45-45C90,231.19,69.81,211,45,211z"/> </g> </g><g> <g> <path d="M45,361c-24.82,0-45,20.19-45,45c0,24.82,20.18,45,45,45c24.81,0,45-20.18,45-45C90,381.19,69.81,361,45,361z"/> </g> </g></symbol><symbol id="edit" viewBox="0 0 383.947 383.947"><title>edit</title><polygon points="0,303.947 0,383.947 80,383.947 316.053,147.893 236.053,67.893 "/><path d="M377.707,56.053L327.893,6.24c-8.32-8.32-21.867-8.32-30.187,0l-39.04,39.04l80,80l39.04-39.04 C386.027,77.92,386.027,64.373,377.707,56.053z"/></symbol><symbol id="add" viewBox="0 0 448 448"><title>add</title><path d="m408 184h-136c-4.417969 0-8-3.582031-8-8v-136c0-22.089844-17.910156-40-40-40s-40 17.910156-40 40v136c0 4.417969-3.582031 8-8 8h-136c-22.089844 0-40 17.910156-40 40s17.910156 40 40 40h136c4.417969 0 8 3.582031 8 8v136c0 22.089844 17.910156 40 40 40s40-17.910156 40-40v-136c0-4.417969 3.582031-8 8-8h136c22.089844 0 40-17.910156 40-40s-17.910156-40-40-40zm0 0"/></symbol><symbol id="check" viewBox="0 0 405.272 405.272"><title>check</title><path d="M393.401,124.425L179.603,338.208c-15.832,15.835-41.514,15.835-57.361,0L11.878,227.836 c-15.838-15.835-15.838-41.52,0-57.358c15.841-15.841,41.521-15.841,57.355-0.006l81.698,81.699L336.037,67.064 c15.841-15.841,41.523-15.829,57.358,0C409.23,82.902,409.23,108.578,393.401,124.425z"/></symbol></svg>